<?xml version="1.0" encoding="UTF-8"?>
<svg id="a" xmlns="http://www.w3.org/2000/svg" xmlns:xlink="http://www.w3.org/1999/xlink" version="1.1" viewBox="0 0 243.7 243.7">
  <!-- Generator: Adobe Illustrator 30.1.0, SVG Export Plug-In . SVG Version: 2.1.1 Build 136)  -->
  <defs>
    <style>
      .st0 {
        fill: url(#linear-gradient11);
      }

      .st0, .st1, .st2, .st3, .st4, .st5, .st6, .st7, .st8 {
        fill-rule: evenodd;
      }

      .st1 {
        fill: url(#linear-gradient10);
      }

      .st9 {
        fill: url(#linear-gradient1);
      }

      .st10 {
        fill: url(#linear-gradient9);
      }

      .st2 {
        fill: url(#linear-gradient2);
      }

      .st3 {
        fill: url(#linear-gradient8);
      }

      .st4 {
        fill: url(#linear-gradient7);
      }

      .st5 {
        fill: url(#linear-gradient4);
      }

      .st6 {
        fill: url(#linear-gradient5);
      }

      .st7 {
        fill: url(#linear-gradient3);
      }

      .st8 {
        fill: url(#linear-gradient6);
      }

      .st11 {
        fill: url(#linear-gradient);
        isolation: isolate;
        opacity: .2;
      }
    </style>
    <linearGradient id="linear-gradient" x1="71.9" y1="124.1" x2="170.9" y2="124.1" gradientTransform="translate(0 246) scale(1 -1)" gradientUnits="userSpaceOnUse">
      <stop offset=".3" stop-color="#ffdb6e"/>
      <stop offset="1" stop-color="#ffbc5e"/>
    </linearGradient>
    <linearGradient id="linear-gradient1" x1="4.9" y1="124.1" x2="54.4" y2="124.1" gradientTransform="translate(0 246) scale(1 -1)" gradientUnits="userSpaceOnUse">
      <stop offset=".3" stop-color="#ffdb6e"/>
      <stop offset="1" stop-color="#ffbc5e"/>
    </linearGradient>
    <linearGradient id="linear-gradient2" x1="112.7" y1="77.5" x2="130.1" y2="77.5" gradientTransform="translate(0 246) scale(1 -1)" gradientUnits="userSpaceOnUse">
      <stop offset=".3" stop-color="#ffdb6e"/>
      <stop offset="1" stop-color="#ffbc5e"/>
    </linearGradient>
    <linearGradient id="linear-gradient3" x1="102.3" y1="223.1" x2="140.5" y2="223.1" gradientTransform="translate(0 246) scale(1 -1)" gradientUnits="userSpaceOnUse">
      <stop offset=".3" stop-color="#ffdb6e"/>
      <stop offset="1" stop-color="#ffbc5e"/>
    </linearGradient>
    <linearGradient id="linear-gradient4" x1="5.1" y1="55.7" x2="54.4" y2="55.7" gradientTransform="translate(0 246) scale(1 -1)" gradientUnits="userSpaceOnUse">
      <stop offset=".3" stop-color="#ffdb6e"/>
      <stop offset="1" stop-color="#ffbc5e"/>
    </linearGradient>
    <linearGradient id="linear-gradient5" x1="5.1" y1="192.5" x2="54.4" y2="192.5" gradientTransform="translate(0 246) scale(1 -1)" gradientUnits="userSpaceOnUse">
      <stop offset=".3" stop-color="#ffdb6e"/>
      <stop offset="1" stop-color="#ffbc5e"/>
    </linearGradient>
    <linearGradient id="linear-gradient6" x1="112.7" y1="124.1" x2="130.1" y2="124.1" gradientTransform="translate(0 246) scale(1 -1)" gradientUnits="userSpaceOnUse">
      <stop offset=".3" stop-color="#ffdb6e"/>
      <stop offset="1" stop-color="#ffbc5e"/>
    </linearGradient>
    <linearGradient id="linear-gradient7" x1="112.7" y1="170.7" x2="130.1" y2="170.7" gradientTransform="translate(0 246) scale(1 -1)" gradientUnits="userSpaceOnUse">
      <stop offset=".3" stop-color="#ffdb6e"/>
      <stop offset="1" stop-color="#ffbc5e"/>
    </linearGradient>
    <linearGradient id="linear-gradient8" x1="102.3" y1="25.1" x2="140.5" y2="25.1" gradientTransform="translate(0 246) scale(1 -1)" gradientUnits="userSpaceOnUse">
      <stop offset=".3" stop-color="#ffdb6e"/>
      <stop offset="1" stop-color="#ffbc5e"/>
    </linearGradient>
    <linearGradient id="linear-gradient9" x1="188.4" y1="124.1" x2="237.9" y2="124.1" gradientTransform="translate(0 246) scale(1 -1)" gradientUnits="userSpaceOnUse">
      <stop offset=".3" stop-color="#ffdb6e"/>
      <stop offset="1" stop-color="#ffbc5e"/>
    </linearGradient>
    <linearGradient id="linear-gradient10" x1="188.4" y1="55.7" x2="237.7" y2="55.7" gradientTransform="translate(0 246) scale(1 -1)" gradientUnits="userSpaceOnUse">
      <stop offset=".3" stop-color="#ffdb6e"/>
      <stop offset="1" stop-color="#ffbc5e"/>
    </linearGradient>
    <linearGradient id="linear-gradient11" x1="188.4" y1="192.5" x2="237.7" y2="192.5" gradientTransform="translate(0 246) scale(1 -1)" gradientUnits="userSpaceOnUse">
      <stop offset=".3" stop-color="#ffdb6e"/>
      <stop offset="1" stop-color="#ffbc5e"/>
    </linearGradient>
  </defs>
  <path class="st11" d="M71.9,28.7v186.3h99V28.7h-99Z"/>
  <rect class="st9" x="4.9" y="95.7" width="49.5" height="52.4"/>
  <path class="st2" d="M112.7,174.3c0,4.8,3.9,8.7,8.7,8.7s8.7-3.9,8.7-8.7v-11.7c0-4.8-3.9-8.7-8.7-8.7s-8.7,3.9-8.7,8.7v11.7Z"/>
  <path class="st7" d="M134.7,5.4h-26.5c-4.5,0-7.3,4.8-5.1,8.7l8.3,14.6,4.9,8.6c2.2,3.9,7.9,3.9,10.1,0l4.9-8.6,8.3-14.6c2.2-3.9-.6-8.7-5.1-8.7h0Z"/>
  <path class="st5" d="M15.2,204.8c7.9,7.9,19.4,9.7,39.3,10.1v-49.4H5.1c.4,19.9,2.2,31.4,10.1,39.3Z"/>
  <path class="st6" d="M5.1,78.2h49.4V28.9c-19.9.4-31.4,2.2-39.3,10.1-7.9,7.9-9.7,19.4-10.1,39.3Z"/>
  <path class="st8" d="M112.7,127.7c0,4.8,3.9,8.7,8.7,8.7s8.7-3.9,8.7-8.7v-11.6c0-4.8-3.9-8.7-8.7-8.7s-8.7,3.9-8.7,8.7v11.6Z"/>
  <path class="st4" d="M121.4,89.9c4.8,0,8.7-3.9,8.7-8.7v-11.6c0-4.8-3.9-8.7-8.7-8.7s-8.7,3.9-8.7,8.7v11.6c0,4.8,3.9,8.7,8.7,8.7Z"/>
  <path class="st3" d="M131.4,215.1l-4.9-8.6c-2.2-3.9-7.9-3.9-10.1,0l-4.9,8.6-8.3,14.6c-2.2,3.9.6,8.7,5.1,8.7h26.5c4.5,0,7.3-4.8,5.1-8.7l-8.3-14.6h0Z"/>
  <rect class="st10" x="188.4" y="95.7" width="49.5" height="52.4"/>
  <path class="st1" d="M188.4,214.9c19.9-.4,31.4-2.2,39.3-10.1,7.9-7.9,9.7-19.4,10.1-39.3h-49.4v49.4h0Z"/>
  <path class="st0" d="M227.6,39c-7.9-7.9-19.4-9.7-39.3-10.1v49.4h49.4c-.4-19.9-2.2-31.4-10.1-39.3h0Z"/>
</svg>