<?xml version="1.0" encoding="UTF-8"?>
<svg id="a" xmlns="http://www.w3.org/2000/svg" xmlns:xlink="http://www.w3.org/1999/xlink" version="1.1" viewBox="0 0 239.7 239.7">
  <!-- Generator: Adobe Illustrator 30.1.0, SVG Export Plug-In . SVG Version: 2.1.1 Build 136)  -->
  <defs>
    <style>
      .st0 {
        fill: url(#linear-gradient1);
      }

      .st1 {
        fill: url(#linear-gradient);
        isolation: isolate;
        opacity: .2;
      }
    </style>
    <linearGradient id="linear-gradient" x1="3" y1="122.3" x2="237" y2="122.3" gradientTransform="translate(0 242) scale(1 -1)" gradientUnits="userSpaceOnUse">
      <stop offset=".3" stop-color="#ffdb6e"/>
      <stop offset="1" stop-color="#ffbc5e"/>
    </linearGradient>
    <linearGradient id="linear-gradient1" x1="86.1" y1="122.4" x2="165.6" y2="122.4" gradientTransform="translate(0 242) scale(1 -1)" gradientUnits="userSpaceOnUse">
      <stop offset=".3" stop-color="#ffdb6e"/>
      <stop offset="1" stop-color="#ffbc5e"/>
    </linearGradient>
  </defs>
  <path class="st1" d="M120,236.7c64.6,0,117-52.4,117-117S184.6,2.7,120,2.7,3,55,3,119.7s52.4,117,117,117h0Z"/>
  <path class="st0" d="M86.1,119.7v-17.3c0-22.3,15.8-31.4,35.1-20.2l15,8.7,15,8.7c19.3,11.1,19.3,29.4,0,40.5l-15,8.7-15,8.7c-19.3,11.1-35.1,2-35.1-20.2,0,0,0-17.3,0-17.3Z"/>
</svg>