<?xml version="1.0" encoding="UTF-8"?>
<svg id="a" xmlns="http://www.w3.org/2000/svg" xmlns:xlink="http://www.w3.org/1999/xlink" version="1.1" viewBox="0 0 243.7 242.9">
  <!-- Generator: Adobe Illustrator 30.1.0, SVG Export Plug-In . SVG Version: 2.1.1 Build 136)  -->
  <defs>
    <style>
      .st0 {
        fill: url(#linear-gradient);
      }

      .st1 {
        fill: url(#linear-gradient1);
      }

      .st1, .st2 {
        isolation: isolate;
        opacity: .2;
      }

      .st2 {
        fill: url(#linear-gradient2);
      }
    </style>
    <linearGradient id="linear-gradient" x1="28.4" y1="180.4" x2="214.7" y2="180.4" gradientTransform="translate(0 244) scale(1 -1)" gradientUnits="userSpaceOnUse">
      <stop offset=".3" stop-color="#ffdb6e"/>
      <stop offset="1" stop-color="#ffbc5e"/>
    </linearGradient>
    <linearGradient id="linear-gradient1" x1="6.1" y1="77.9" x2="113.2" y2="77.9" gradientTransform="translate(0 244) scale(1 -1)" gradientUnits="userSpaceOnUse">
      <stop offset=".3" stop-color="#ffdb6e"/>
      <stop offset="1" stop-color="#ffbc5e"/>
    </linearGradient>
    <linearGradient id="linear-gradient2" x1="129.8" y1="77.9" x2="236.9" y2="77.9" gradientTransform="translate(0 244) scale(1 -1)" gradientUnits="userSpaceOnUse">
      <stop offset=".3" stop-color="#ffdb6e"/>
      <stop offset="1" stop-color="#ffbc5e"/>
    </linearGradient>
  </defs>
  <path class="st0" d="M206.1,48.8L133.8,9.8c-7.6-4.2-16.9-4.2-24.5,0L36.9,48.8c-5.3,2.9-8.5,8.4-8.5,14.8s3.2,11.9,8.5,14.8l72.4,39c3.8,2.1,8.1,3.1,12.2,3.1s8.4-1,12.2-3.1l72.4-39c5.3-2.9,8.5-8.4,8.5-14.8s-3.2-11.9-8.5-14.8h0Z"/>
  <path class="st1" d="M97.4,130.9L30,97.2c-5.2-2.5-11.2-2.3-16,.7-5,3.1-7.8,8.3-7.8,14.1v63.6c0,11,6.1,20.9,15.9,25.9l67.3,33.7c2.3,1.2,4.9,1.7,7.4,1.7s6-.8,8.7-2.4c5-3,7.8-8.3,7.8-14.1v-63.6c.1-11.1-6-21-15.8-25.9h0Z"/>
  <path class="st2" d="M229.1,97.9c-5-3-11-3.3-16-.7l-67.3,33.7c-9.8,5-15.9,14.8-15.9,25.9v63.6c0,5.8,2.9,11.1,7.8,14.1,2.7,1.6,5.7,2.4,8.7,2.4s5.1-.6,7.4-1.7l67.3-33.7c9.8-5,15.9-14.8,15.9-25.9v-63.6c0-5.8-2.9-11-7.8-14.1h0Z"/>
</svg>